<mxfile host="drawio-plugin" modified="2021-11-23T15:13:41.318Z" agent="5.0 (X11; Linux x86_64) AppleWebKit/537.36 (KHTML, like Gecko) Chrome/89.0.4389.114 Safari/537.36" etag="QDqDb3ZgtHIkBnSVztBg" version="14.7.4" type="embed"><diagram id="3hxzyZlekJFAknyL-_68" name="Page-1"><mxGraphModel dx="836" dy="557" grid="1" gridSize="10" guides="1" tooltips="1" connect="1" arrows="1" fold="1" page="1" pageScale="1" pageWidth="827" pageHeight="1169" math="0" shadow="0"><root><mxCell id="0"/><mxCell id="1" parent="0"/><mxCell id="JMEFJzcEO7WekP3bRmoO-1" value="My&lt;br&gt;RootHash&lt;br&gt;Calulated" style="rounded=1;whiteSpace=wrap;html=1;glass=0;shadow=1;" parent="1" vertex="1"><mxGeometry x="280" y="40" width="120" height="80" as="geometry"/></mxCell><mxCell id="JMEFJzcEO7WekP3bRmoO-2" value="ModifyApproval&lt;br&gt;Transaction&lt;br&gt;Published" style="rounded=1;whiteSpace=wrap;html=1;shadow=1;sketch=0;" parent="1" vertex="1"><mxGeometry x="1280" y="40" width="120" height="80" as="geometry"/></mxCell><mxCell id="JMEFJzcEO7WekP3bRmoO-3" value="Other&lt;br&gt;Opinion&lt;br&gt;Received" style="rounded=1;whiteSpace=wrap;html=1;shadow=1;" parent="1" vertex="1"><mxGeometry x="720" y="40" width="120" height="80" as="geometry"/></mxCell><mxCell id="JMEFJzcEO7WekP3bRmoO-5" value="Opinion" style="endArrow=classic;html=1;entryX=0.5;entryY=0;entryDx=0;entryDy=0;exitX=0.5;exitY=1;exitDx=0;exitDy=0;fontSize=14;fontColor=#3333FF;" parent="1" source="JMEFJzcEO7WekP3bRmoO-3" target="JMEFJzcEO7WekP3bRmoO-6" edge="1"><mxGeometry width="50" height="50" relative="1" as="geometry"><mxPoint x="1070" y="120" as="sourcePoint"/><mxPoint x="780" y="190" as="targetPoint"/><Array as="points"><mxPoint x="780" y="150"/></Array></mxGeometry></mxCell><mxCell id="JMEFJzcEO7WekP3bRmoO-6" value="Opinion Number&amp;nbsp;&lt;br&gt;Is More Than 2/3 ?" style="rhombus;whiteSpace=wrap;html=1;" parent="1" vertex="1"><mxGeometry x="700" y="195" width="160" height="80" as="geometry"/></mxCell><mxCell id="JMEFJzcEO7WekP3bRmoO-7" value="yes" style="endArrow=classic;html=1;exitX=1;exitY=0.5;exitDx=0;exitDy=0;fontSize=14;fontColor=#3333FF;" parent="1" source="JMEFJzcEO7WekP3bRmoO-6" edge="1"><mxGeometry width="50" height="50" relative="1" as="geometry"><mxPoint x="850" y="375" as="sourcePoint"/><mxPoint x="900" y="315" as="targetPoint"/><Array as="points"><mxPoint x="900" y="235"/></Array></mxGeometry></mxCell><mxCell id="JMEFJzcEO7WekP3bRmoO-8" value="no" style="endArrow=classic;html=1;exitX=0;exitY=0.5;exitDx=0;exitDy=0;fontSize=14;fontColor=#3333FF;" parent="1" source="JMEFJzcEO7WekP3bRmoO-6" edge="1"><mxGeometry width="50" height="50" relative="1" as="geometry"><mxPoint x="550" y="385" as="sourcePoint"/><mxPoint x="660" y="315" as="targetPoint"/><Array as="points"><mxPoint x="660" y="235"/></Array></mxGeometry></mxCell><mxCell id="JMEFJzcEO7WekP3bRmoO-9" value="Save&lt;br&gt;Opinion" style="rounded=0;whiteSpace=wrap;html=1;shadow=0;glass=0;sketch=0;" parent="1" vertex="1"><mxGeometry x="600" y="315" width="120" height="60" as="geometry"/></mxCell><mxCell id="JMEFJzcEO7WekP3bRmoO-10" value="Is My RootHash&lt;br&gt;Calculated?" style="rhombus;whiteSpace=wrap;html=1;" parent="1" vertex="1"><mxGeometry x="820" y="315" width="160" height="80" as="geometry"/></mxCell><mxCell id="JMEFJzcEO7WekP3bRmoO-11" value="yes" style="endArrow=classic;html=1;exitX=1;exitY=0.5;exitDx=0;exitDy=0;fontSize=14;fontColor=#3333FF;" parent="1" edge="1"><mxGeometry width="50" height="50" relative="1" as="geometry"><mxPoint x="980" y="355" as="sourcePoint"/><mxPoint x="1020" y="435" as="targetPoint"/><Array as="points"><mxPoint x="1020" y="355"/></Array></mxGeometry></mxCell><mxCell id="JMEFJzcEO7WekP3bRmoO-12" value="no" style="endArrow=classic;html=1;exitX=0;exitY=0.5;exitDx=0;exitDy=0;fontSize=14;fontColor=#3333FF;" parent="1" edge="1"><mxGeometry width="50" height="50" relative="1" as="geometry"><mxPoint x="820" y="355" as="sourcePoint"/><mxPoint x="780" y="435" as="targetPoint"/><Array as="points"><mxPoint x="780" y="355"/></Array></mxGeometry></mxCell><mxCell id="JMEFJzcEO7WekP3bRmoO-13" value="Wait RootHash" style="rounded=0;whiteSpace=wrap;html=1;shadow=0;glass=0;sketch=0;" parent="1" vertex="1"><mxGeometry x="720" y="435" width="120" height="60" as="geometry"/></mxCell><mxCell id="JMEFJzcEO7WekP3bRmoO-14" value="Start Timer&lt;br&gt;(if not started)" style="rounded=0;whiteSpace=wrap;html=1;shadow=0;glass=0;sketch=0;" parent="1" vertex="1"><mxGeometry x="960" y="435" width="120" height="60" as="geometry"/></mxCell><mxCell id="JMEFJzcEO7WekP3bRmoO-15" value="&lt;span&gt;Send Transaction&lt;/span&gt;&lt;br&gt;&lt;span&gt;To Harvester&lt;/span&gt;" style="rounded=0;whiteSpace=wrap;html=1;shadow=0;glass=0;sketch=0;" parent="1" vertex="1"><mxGeometry x="960" y="555" width="120" height="60" as="geometry"/></mxCell><mxCell id="JMEFJzcEO7WekP3bRmoO-16" value="" style="endArrow=classic;html=1;" parent="1" edge="1"><mxGeometry width="50" height="50" relative="1" as="geometry"><mxPoint x="1020" y="495" as="sourcePoint"/><mxPoint x="1020" y="555" as="targetPoint"/></mxGeometry></mxCell><mxCell id="JMEFJzcEO7WekP3bRmoO-19" value="Opinion Number&amp;nbsp;&lt;br&gt;Is More Than 2/3 ?" style="rhombus;whiteSpace=wrap;html=1;" parent="1" vertex="1"><mxGeometry x="140" y="430" width="160" height="80" as="geometry"/></mxCell><mxCell id="JMEFJzcEO7WekP3bRmoO-20" value="no" style="endArrow=classic;html=1;exitX=0;exitY=0.5;exitDx=0;exitDy=0;" parent="1" edge="1"><mxGeometry width="50" height="50" relative="1" as="geometry"><mxPoint x="140" y="470" as="sourcePoint"/><mxPoint x="100" y="550" as="targetPoint"/><Array as="points"><mxPoint x="100" y="470"/></Array></mxGeometry></mxCell><mxCell id="JMEFJzcEO7WekP3bRmoO-21" value="yes" style="endArrow=classic;html=1;exitX=1;exitY=0.5;exitDx=0;exitDy=0;" parent="1" edge="1"><mxGeometry width="50" height="50" relative="1" as="geometry"><mxPoint x="300" y="470" as="sourcePoint"/><mxPoint x="340" y="550" as="targetPoint"/><Array as="points"><mxPoint x="340" y="470"/></Array></mxGeometry></mxCell><mxCell id="JMEFJzcEO7WekP3bRmoO-23" value="Wait Other&lt;br&gt;Opinions" style="rounded=0;whiteSpace=wrap;html=1;shadow=0;glass=0;sketch=0;" parent="1" vertex="1"><mxGeometry x="40" y="550" width="120" height="60" as="geometry"/></mxCell><mxCell id="JMEFJzcEO7WekP3bRmoO-24" value="Start Timer" style="rounded=0;whiteSpace=wrap;html=1;shadow=0;glass=0;sketch=0;" parent="1" vertex="1"><mxGeometry x="280" y="550" width="120" height="60" as="geometry"/></mxCell><mxCell id="JMEFJzcEO7WekP3bRmoO-25" value="&lt;span&gt;Send Transaction&lt;/span&gt;&lt;br&gt;&lt;span&gt;To Harvester&lt;/span&gt;" style="rounded=0;whiteSpace=wrap;html=1;shadow=0;glass=0;sketch=0;" parent="1" vertex="1"><mxGeometry x="280" y="670" width="120" height="60" as="geometry"/></mxCell><mxCell id="JMEFJzcEO7WekP3bRmoO-26" value="" style="endArrow=classic;html=1;" parent="1" edge="1"><mxGeometry width="50" height="50" relative="1" as="geometry"><mxPoint x="340" y="610" as="sourcePoint"/><mxPoint x="340" y="670" as="targetPoint"/></mxGeometry></mxCell><mxCell id="JMEFJzcEO7WekP3bRmoO-27" value="" style="endArrow=classic;html=1;exitX=0.5;exitY=1;exitDx=0;exitDy=0;entryX=0.5;entryY=0;entryDx=0;entryDy=0;" parent="1" source="JMEFJzcEO7WekP3bRmoO-1" target="JMEFJzcEO7WekP3bRmoO-34" edge="1"><mxGeometry width="50" height="50" relative="1" as="geometry"><mxPoint x="160" y="210" as="sourcePoint"/><mxPoint x="340" y="190" as="targetPoint"/></mxGeometry></mxCell><mxCell id="JMEFJzcEO7WekP3bRmoO-30" value="Send&lt;br&gt;SingleAproval&lt;br&gt;Transaction" style="rounded=0;whiteSpace=wrap;html=1;shadow=0;glass=0;sketch=0;" parent="1" vertex="1"><mxGeometry x="1110" y="760" width="120" height="60" as="geometry"/></mxCell><mxCell id="JMEFJzcEO7WekP3bRmoO-31" value="Is My RootHash&lt;br&gt;Calculated?" style="rhombus;whiteSpace=wrap;html=1;" parent="1" vertex="1"><mxGeometry x="1260" y="280" width="160" height="80" as="geometry"/></mxCell><mxCell id="JMEFJzcEO7WekP3bRmoO-32" value="no" style="endArrow=classic;html=1;exitX=0;exitY=0.5;exitDx=0;exitDy=0;fontSize=14;fontColor=#3333FF;" parent="1" edge="1"><mxGeometry width="50" height="50" relative="1" as="geometry"><mxPoint x="1260" y="320" as="sourcePoint"/><mxPoint x="1220" y="400" as="targetPoint"/><Array as="points"><mxPoint x="1220" y="320"/></Array></mxGeometry></mxCell><mxCell id="JMEFJzcEO7WekP3bRmoO-33" value="Stop Timer&lt;br&gt;(if it started)" style="rounded=0;whiteSpace=wrap;html=1;shadow=0;glass=0;sketch=0;" parent="1" vertex="1"><mxGeometry x="1280" y="180" width="120" height="60" as="geometry"/></mxCell><mxCell id="JMEFJzcEO7WekP3bRmoO-34" value="Has Transaction&lt;br&gt;Been Published" style="rhombus;whiteSpace=wrap;html=1;" parent="1" vertex="1"><mxGeometry x="260" y="200" width="160" height="80" as="geometry"/></mxCell><mxCell id="JMEFJzcEO7WekP3bRmoO-35" value="no" style="endArrow=classic;html=1;exitX=0;exitY=0.5;exitDx=0;exitDy=0;fontSize=14;fontColor=#3333FF;" parent="1" edge="1"><mxGeometry width="50" height="50" relative="1" as="geometry"><mxPoint x="260" y="240" as="sourcePoint"/><mxPoint x="220" y="320" as="targetPoint"/><Array as="points"><mxPoint x="220" y="240"/></Array></mxGeometry></mxCell><mxCell id="JMEFJzcEO7WekP3bRmoO-36" value="yes" style="endArrow=classic;html=1;exitX=1;exitY=0.5;exitDx=0;exitDy=0;fontSize=14;fontColor=#3333FF;" parent="1" edge="1"><mxGeometry width="50" height="50" relative="1" as="geometry"><mxPoint x="420" y="240" as="sourcePoint"/><mxPoint x="460" y="320" as="targetPoint"/><Array as="points"><mxPoint x="460" y="240"/></Array></mxGeometry></mxCell><mxCell id="JMEFJzcEO7WekP3bRmoO-37" value="&lt;span style=&quot;color: rgb(0 , 0 , 0) ; font-family: &amp;#34;helvetica&amp;#34; ; font-size: 12px ; font-style: normal ; font-weight: 400 ; letter-spacing: normal ; text-align: center ; text-indent: 0px ; text-transform: none ; word-spacing: 0px ; background-color: rgb(248 , 249 , 250) ; display: inline ; float: none&quot;&gt;Send&lt;/span&gt;&lt;br style=&quot;color: rgb(0 , 0 , 0) ; font-family: &amp;#34;helvetica&amp;#34; ; font-size: 12px ; font-style: normal ; font-weight: 400 ; letter-spacing: normal ; text-align: center ; text-indent: 0px ; text-transform: none ; word-spacing: 0px ; background-color: rgb(248 , 249 , 250)&quot;&gt;&lt;span style=&quot;color: rgb(0 , 0 , 0) ; font-family: &amp;#34;helvetica&amp;#34; ; font-size: 12px ; font-style: normal ; font-weight: 400 ; letter-spacing: normal ; text-align: center ; text-indent: 0px ; text-transform: none ; word-spacing: 0px ; background-color: rgb(248 , 249 , 250) ; display: inline ; float: none&quot;&gt;SingleAproval&lt;/span&gt;&lt;br style=&quot;color: rgb(0 , 0 , 0) ; font-family: &amp;#34;helvetica&amp;#34; ; font-size: 12px ; font-style: normal ; font-weight: 400 ; letter-spacing: normal ; text-align: center ; text-indent: 0px ; text-transform: none ; word-spacing: 0px ; background-color: rgb(248 , 249 , 250)&quot;&gt;&lt;span style=&quot;color: rgb(0 , 0 , 0) ; font-family: &amp;#34;helvetica&amp;#34; ; font-size: 12px ; font-style: normal ; font-weight: 400 ; letter-spacing: normal ; text-align: center ; text-indent: 0px ; text-transform: none ; word-spacing: 0px ; background-color: rgb(248 , 249 , 250) ; display: inline ; float: none&quot;&gt;Transaction&lt;/span&gt;" style="rounded=0;whiteSpace=wrap;html=1;shadow=0;glass=0;sketch=0;" parent="1" vertex="1"><mxGeometry x="400" y="320" width="120" height="60" as="geometry"/></mxCell><mxCell id="JMEFJzcEO7WekP3bRmoO-38" value="Wait RootHash" style="rounded=0;whiteSpace=wrap;html=1;shadow=0;glass=0;sketch=0;" parent="1" vertex="1"><mxGeometry x="1160" y="400" width="120" height="60" as="geometry"/></mxCell><mxCell id="JMEFJzcEO7WekP3bRmoO-39" value="" style="endArrow=classic;html=1;exitX=0.5;exitY=1;exitDx=0;exitDy=0;entryX=0.5;entryY=0;entryDx=0;entryDy=0;" parent="1" source="JMEFJzcEO7WekP3bRmoO-2" target="JMEFJzcEO7WekP3bRmoO-33" edge="1"><mxGeometry width="50" height="50" relative="1" as="geometry"><mxPoint x="1190" y="750" as="sourcePoint"/><mxPoint x="1240" y="700" as="targetPoint"/></mxGeometry></mxCell><mxCell id="JMEFJzcEO7WekP3bRmoO-40" value="" style="endArrow=classic;html=1;exitX=0.5;exitY=1;exitDx=0;exitDy=0;" parent="1" source="JMEFJzcEO7WekP3bRmoO-33" target="JMEFJzcEO7WekP3bRmoO-31" edge="1"><mxGeometry width="50" height="50" relative="1" as="geometry"><mxPoint x="1490" y="290" as="sourcePoint"/><mxPoint x="1540" y="240" as="targetPoint"/></mxGeometry></mxCell><mxCell id="JMEFJzcEO7WekP3bRmoO-41" value="yes" style="endArrow=classic;html=1;exitX=1;exitY=0.5;exitDx=0;exitDy=0;fontSize=14;fontColor=#3333FF;entryX=0.5;entryY=0;entryDx=0;entryDy=0;" parent="1" target="VQsclywmffaOFnbAgXFg-1" edge="1"><mxGeometry x="-0.625" width="50" height="50" relative="1" as="geometry"><mxPoint x="1420" y="320" as="sourcePoint"/><mxPoint x="1460" y="480" as="targetPoint"/><Array as="points"><mxPoint x="1460" y="320"/><mxPoint x="1460" y="400"/><mxPoint x="1340" y="400"/></Array><mxPoint as="offset"/></mxGeometry></mxCell><mxCell id="JMEFJzcEO7WekP3bRmoO-48" value="Single&lt;br&gt;ModifyApproval&lt;br&gt;Transaction&lt;br&gt;Published" style="rounded=1;whiteSpace=wrap;html=1;shadow=1;sketch=0;" parent="1" vertex="1"><mxGeometry x="1480" y="40" width="120" height="80" as="geometry"/></mxCell><mxCell id="VQsclywmffaOFnbAgXFg-1" value="Is My Opinion Present?" style="rhombus;whiteSpace=wrap;html=1;" parent="1" vertex="1"><mxGeometry x="1260" y="480" width="160" height="80" as="geometry"/></mxCell><mxCell id="VQsclywmffaOFnbAgXFg-2" value="no" style="endArrow=classic;html=1;exitX=0;exitY=0.5;exitDx=0;exitDy=0;fontSize=14;fontColor=#3333FF;" parent="1" edge="1"><mxGeometry width="50" height="50" relative="1" as="geometry"><mxPoint x="1210" y="680" as="sourcePoint"/><mxPoint x="1170" y="760" as="targetPoint"/><Array as="points"><mxPoint x="1170" y="680"/></Array></mxGeometry></mxCell><mxCell id="VQsclywmffaOFnbAgXFg-3" value="yes" style="endArrow=classic;html=1;fontSize=14;fontColor=#3333FF;" parent="1" edge="1"><mxGeometry width="50" height="50" relative="1" as="geometry"><mxPoint x="1460" y="390" as="sourcePoint"/><mxPoint x="1460" y="600" as="targetPoint"/><Array as="points"><mxPoint x="1460" y="520"/></Array></mxGeometry></mxCell><mxCell id="VQsclywmffaOFnbAgXFg-4" value="Synchronize&lt;br&gt;Drive" style="rounded=0;whiteSpace=wrap;html=1;shadow=0;glass=0;sketch=0;" parent="1" vertex="1"><mxGeometry x="1400" y="600" width="120" height="60" as="geometry"/></mxCell><mxCell id="VQsclywmffaOFnbAgXFg-6" value="Transaction&lt;br&gt;Canceled&lt;br&gt;By My Replicator" style="rounded=1;whiteSpace=wrap;html=1;glass=0;shadow=1;" parent="1" vertex="1"><mxGeometry x="40" y="760" width="120" height="80" as="geometry"/></mxCell><mxCell id="VQsclywmffaOFnbAgXFg-7" value="Transaction&lt;br&gt;Canceled&lt;br&gt;By Client" style="rounded=1;whiteSpace=wrap;html=1;glass=0;shadow=1;" parent="1" vertex="1"><mxGeometry x="40" y="920" width="120" height="80" as="geometry"/></mxCell><mxCell id="EvXteiSqE8ztGM5SMhLt-1" value="Synchronize&lt;br&gt;Drive" style="rounded=0;whiteSpace=wrap;html=1;shadow=0;glass=0;sketch=0;" parent="1" vertex="1"><mxGeometry x="1480" y="180" width="120" height="60" as="geometry"/></mxCell><mxCell id="EvXteiSqE8ztGM5SMhLt-2" value="" style="endArrow=classic;html=1;exitX=0.5;exitY=1;exitDx=0;exitDy=0;entryX=0.5;entryY=0;entryDx=0;entryDy=0;" parent="1" source="JMEFJzcEO7WekP3bRmoO-48" target="EvXteiSqE8ztGM5SMhLt-1" edge="1"><mxGeometry width="50" height="50" relative="1" as="geometry"><mxPoint x="1090" y="510" as="sourcePoint"/><mxPoint x="1140" y="460" as="targetPoint"/></mxGeometry></mxCell><mxCell id="EvXteiSqE8ztGM5SMhLt-3" value="&lt;span style=&quot;color: rgb(0 , 0 , 0) ; font-family: &amp;#34;helvetica&amp;#34; ; font-size: 12px ; font-style: normal ; font-weight: 400 ; letter-spacing: normal ; text-align: center ; text-indent: 0px ; text-transform: none ; word-spacing: 0px ; background-color: rgb(248 , 249 , 250) ; display: inline ; float: none&quot;&gt;Send&lt;/span&gt;&lt;br style=&quot;color: rgb(0 , 0 , 0) ; font-family: &amp;#34;helvetica&amp;#34; ; font-size: 12px ; font-style: normal ; font-weight: 400 ; letter-spacing: normal ; text-align: center ; text-indent: 0px ; text-transform: none ; word-spacing: 0px ; background-color: rgb(248 , 249 , 250)&quot;&gt;&lt;font face=&quot;helvetica&quot;&gt;My Opinion&lt;/font&gt;&lt;br style=&quot;color: rgb(0 , 0 , 0) ; font-family: &amp;#34;helvetica&amp;#34; ; font-size: 12px ; font-style: normal ; font-weight: 400 ; letter-spacing: normal ; text-align: center ; text-indent: 0px ; text-transform: none ; word-spacing: 0px ; background-color: rgb(248 , 249 , 250)&quot;&gt;&lt;font face=&quot;helvetica&quot;&gt;To Other Replicators&lt;/font&gt;" style="rounded=0;whiteSpace=wrap;html=1;shadow=0;glass=0;sketch=0;" parent="1" vertex="1"><mxGeometry x="160" y="320" width="120" height="60" as="geometry"/></mxCell><mxCell id="EvXteiSqE8ztGM5SMhLt-4" value="" style="endArrow=classic;html=1;exitX=0.5;exitY=1;exitDx=0;exitDy=0;entryX=0.5;entryY=0;entryDx=0;entryDy=0;" parent="1" source="EvXteiSqE8ztGM5SMhLt-3" target="JMEFJzcEO7WekP3bRmoO-19" edge="1"><mxGeometry width="50" height="50" relative="1" as="geometry"><mxPoint x="70" y="440" as="sourcePoint"/><mxPoint x="120" y="390" as="targetPoint"/></mxGeometry></mxCell></root></mxGraphModel></diagram></mxfile>